<?xml version="1.0" encoding="utf-8"?>
<!-- Generator: Adobe Illustrator 25.0.0, SVG Export Plug-In . SVG Version: 6.00 Build 0)  -->
<svg version="1.1" id="Layer_1" xmlns="http://www.w3.org/2000/svg" xmlns:xlink="http://www.w3.org/1999/xlink" x="0px" y="0px"
	 viewBox="0 0 512 512" style="enable-background:new 0 0 512 512;" xml:space="preserve">
<style type="text/css">
	.st0{fill:#CED4DA;}
	.st1{fill:#343A40;}
	.st2{fill:#FF184E;}
</style>
<g transform="translate(0.000000,512.000000) scale(0.100000,-0.100000)">
	<path class="st0" d="M811,4127c-332-345-558-820-632-1332c-15-98-19-492-6-538c15-55,110-67,137-17c5,10,9,105,9,212
		c0,106,5,236,11,288c57,480,262,921,592,1278c77,83,86,115,43,157C921,4219,890,4210,811,4127z"/>
	<path class="st0" d="M4172,4193c-21-8-44-62-36-86c4-12,42-61,85-109c307-343,489-727,566-1193c25-153,25-494,0-655
		c-27-170-80-363-142-519c-30-75-55-149-55-164c0-60,86-90,127-45c22,24,78,151,120,273c41,119,82,293,104,440c24,162,29,469,10,620
		c-63,486-259,935-563,1291c-53,61-108,120-123,132C4239,4199,4201,4205,4172,4193z"/>
	<path class="st1" d="M1252,3708c-80-83-112-124-189-240c-254-385-347-875-254-1328c36-175,121-409,158-438c30-22,79-15,103,15
		c27,35,24,60-25,176c-20,49-49,139-65,200c-133,529,5,1092,364,1485c64,70,76,88,76,117c0,45-29,75-74,75
		C1318,3770,1303,3760,1252,3708z"/>
	<path class="st1" d="M3696,3749c-19-15-26-30-26-54c0-28,13-48,73-115c39-44,83-83,96-87c55-14,110,39,97,93c-4,13-41,60-84,104
		C3768,3778,3744,3787,3696,3749z"/>
	<path class="st2" d="M2350,3530c-106-22-166-42-255-85c-332-160-562-486-601-852c-6-57-5-63,19-87c41-41,98-32,124,19
		c6,11,14,49,17,84c4,35,19,101,33,145c179,577,876,826,1376,492c254-169,401-424,414-718c9-183-21-323-102-476
		c-41-79-194-286-333-452c-136-161-371-400-409-416c-54-23-113-18-164,15c-83,52-466,482-604,678c-56,80-139,76-160-8
		c-5-19,3-38,31-80c100-145,305-387,493-581c156-162,211-193,336-193c114,1,155,22,283,148c291,284,600,673,693,872
		c81,172,116,396,90,575c-70,477-419,845-880,925C2637,3555,2456,3553,2350,3530z"/>
	<path class="st1" d="M4032,3294c-45-32-45-55,3-173c128-319,157-638,89-969c-55-269-210-564-400-764c-45-47-54-63-54-92
		c0-46,29-76,74-76c28,0,43,10,94,63c215,221,377,535,441,852c70,348,40,688-90,1022C4132,3303,4093,3337,4032,3294z"/>
	<path class="st2" d="M2517,3028c-22-18-35-58-27-88c8-32,38-46,130-59c184-28,318-157,352-339c31-169-67-354-232-435
		c-61-30-71-32-175-32c-99,0-116,3-168,27c-116,55-211,176-237,303c-15,73-7,145,25,231c22,57,23,70,12,93c-17,36-58,54-93,41
		c-38-15-50-33-79-123c-46-143-31-300,41-438c139-264,472-371,748-241c286,136,402,492,253,777c-44,84-155,194-237,233
		C2714,3034,2558,3059,2517,3028z"/>
	<path class="st0" d="M292,1817c-12-13-22-35-22-50c0-69,150-406,255-572c122-192,319-426,370-439c29-7,79,15,89,39
		c16,41,4,66-65,142c-209,231-378,509-470,772c-18,52-41,103-51,113C372,1848,318,1845,292,1817z"/>
	<path class="st1" d="M1202,1447c-37-40-29-77,33-150c31-36,63-68,71-71c54-21,114,19,114,74c0,25-13,45-68,101
		C1276,1479,1242,1489,1202,1447z"/>
	<path class="st0" d="M4237,975c-105-114-119-141-93-181c25-37,59-49,94-35c30,13,192,187,204,222c19,50-20,99-78,99
		C4337,1080,4320,1065,4237,975z"/>
</g>
</svg>
