<?xml version="1.0" standalone="no"?>
<!DOCTYPE svg PUBLIC "-//W3C//DTD SVG 20010904//EN"
 "http://www.w3.org/TR/2001/REC-SVG-20010904/DTD/svg10.dtd">
<svg version="1.0" xmlns="http://www.w3.org/2000/svg"
 width="481.000000pt" height="481.000000pt" viewBox="0 0 481.000000 481.000000"
 preserveAspectRatio="xMidYMid meet">
<metadata>
Created by potrace 1.14, written by Peter Selinger 2001-2017
</metadata>
<g transform="translate(0.000000,481.000000) scale(0.100000,-0.100000)"
fill="#000000" stroke="none">
<path d="M704 4108 c-86 -68 -239 -257 -343 -425 -172 -278 -308 -661 -347
-978 -11 -89 -12 -486 -1 -518 11 -33 34 -47 80 -47 63 0 62 -4 71 340 3 107
12 231 20 275 32 174 29 163 60 271 83 296 245 598 448 837 153 181 160 196
113 242 -30 31 -64 32 -101 3z"/>
<path d="M3999 4113 c-9 -10 -19 -30 -23 -44 -6 -29 14 -59 155 -229 141 -170
277 -398 358 -604 44 -110 115 -359 127 -448 3 -18 7 -39 9 -46 7 -21 19 -226
19 -327 0 -312 -41 -528 -159 -848 -60 -160 -64 -188 -34 -216 35 -33 83 -28
113 12 45 59 142 318 172 462 54 249 67 371 67 610 0 109 -11 293 -18 305 -2
3 -6 27 -9 53 -25 188 -125 496 -227 700 -97 194 -245 408 -382 552 -61 65
-78 77 -112 82 -31 4 -44 1 -56 -14z"/>
<path d="M1134 3678 c-64 -49 -194 -212 -266 -333 -130 -217 -221 -488 -245
-732 -10 -97 -10 -295 0 -388 19 -176 91 -431 155 -550 25 -46 30 -50 68 -53
35 -3 45 1 63 24 11 15 21 35 21 45 0 10 -18 65 -39 121 -35 92 -61 174 -60
188 0 3 -4 17 -9 31 -6 14 -13 41 -16 60 -3 19 -8 45 -11 59 -27 129 -26 419
1 554 2 12 7 35 9 51 43 244 190 536 375 745 80 90 83 97 76 138 -10 63 -67
82 -122 40z"/>
<path d="M3536 3679 c-51 -40 -30 -95 74 -198 46 -45 69 -61 89 -61 34 0 81
44 81 75 0 47 -150 205 -193 205 -14 0 -36 -9 -51 -21z"/>
<path d="M2290 3477 c-3 -3 -30 -8 -60 -11 -236 -24 -515 -188 -671 -394 -24
-31 -46 -59 -49 -62 -24 -24 -99 -177 -126 -256 -31 -93 -31 -95 -46 -201 -10
-72 -9 -84 5 -107 19 -29 55 -41 93 -32 29 8 50 49 58 116 9 78 56 221 99 305
201 385 673 581 1082 448 142 -46 261 -120 376 -233 183 -180 270 -402 263
-675 -3 -136 -26 -235 -87 -365 -48 -103 -297 -432 -462 -609 -123 -133 -273
-275 -302 -288 -102 -42 -161 -1 -443 313 -74 81 -207 242 -270 326 -86 114
-131 137 -179 94 -51 -46 -34 -88 101 -259 222 -279 499 -568 587 -612 93 -46
238 -39 317 17 99 71 358 346 538 573 182 229 284 403 325 556 31 114 33 125
36 269 5 189 -23 314 -111 493 -149 306 -427 517 -762 581 -68 13 -302 22
-312 13z"/>
<path d="M3866 3219 c-35 -28 -34 -56 10 -175 59 -163 88 -272 110 -409 12
-79 10 -322 -3 -424 -39 -301 -191 -640 -380 -846 -84 -92 -93 -106 -93 -140
0 -45 29 -75 73 -75 77 0 285 265 402 512 122 259 176 516 169 808 -3 163 -31
333 -80 490 -80 254 -132 319 -208 259z"/>
<path d="M2390 2969 c-43 -9 -60 -32 -60 -81 0 -47 20 -59 140 -83 142 -28
243 -102 300 -220 36 -74 47 -123 44 -195 -6 -144 -100 -282 -237 -350 -56
-27 -73 -31 -162 -32 -107 -1 -155 9 -218 49 -89 56 -173 176 -195 278 -12 58
-5 140 18 210 31 92 31 103 7 130 -49 55 -116 31 -147 -53 -85 -226 -38 -453
127 -617 201 -201 532 -217 760 -36 88 69 166 198 193 317 25 105 8 259 -39
365 -48 107 -186 237 -298 279 -77 29 -190 48 -233 39z"/>
<path d="M135 1745 c-14 -13 -25 -35 -25 -48 0 -53 96 -288 188 -457 91 -170
261 -400 375 -507 50 -48 59 -52 89 -47 43 9 68 31 68 61 0 34 -15 58 -85 139
-78 90 -168 208 -231 304 -67 104 -183 336 -224 449 -19 52 -42 103 -52 113
-26 26 -74 23 -103 -7z"/>
<path d="M1042 1377 c-30 -32 -28 -65 9 -120 68 -103 135 -132 184 -82 44 43
35 77 -44 156 -77 77 -110 87 -149 46z"/>
<path d="M4111 942 c-90 -93 -130 -143 -137 -170 -12 -43 46 -99 90 -88 21 5
151 130 196 188 34 44 36 83 7 112 -46 46 -81 37 -156 -42z"/>
</g>
</svg>
